<?xml version="1.0" encoding="utf-8"?>


<!-- The icon can be used freely in both personal and commercial projects with no attribution required, but always appreciated. 
You may NOT sub-license, resell, rent, redistribute or otherwise transfer the icon without express written permission from iconmonstr.com -->


<!DOCTYPE svg PUBLIC "-//W3C//DTD SVG 1.1//EN" "http://www.w3.org/Graphics/SVG/1.1/DTD/svg11.dtd">

<svg version="1.1" xmlns="http://www.w3.org/2000/svg" xmlns:xlink="http://www.w3.org/1999/xlink" x="0px" y="0px"

	 width="512px" height="512px" viewBox="0 0 512 512" enable-background="new 0 0 512 512" xml:space="preserve">

<path id="dribbble-square-rounded-icon" d="M275.464,277.806c11.342,29.599,19.681,60.052,24.981,91.243

	c-13.526,5.222-28.157,8.201-43.5,8.201c-28.057,0-53.847-9.666-74.412-25.727C206.617,313.754,237.361,289.17,275.464,277.806z

	 M202.239,147.941c-31.136,15.826-54.493,44.662-62.962,79.343c41.015-0.281,76.501-4.777,106.22-13.527

	C232.952,191.21,218.525,169.251,202.239,147.941z M265.744,254.211c-2.606-5.874-5.336-11.709-8.188-17.512

	c-34.023,10.688-74.63,16.106-121.7,16.172c-0.027,1.048-0.159,2.072-0.159,3.128c0,29.439,10.566,56.45,28.082,77.475

	C190.346,293.616,224.412,267.131,265.744,254.211z M330.854,160.1c-20.485-15.826-46.079-25.349-73.908-25.349

	c-10.277,0-20.208,1.424-29.742,3.846c16.035,21.549,30.241,43.745,42.671,66.507C295.783,194.132,316.124,179.099,330.854,160.1z

	 M461.945,100v312c0,27.614-22.386,50-50,50h-312c-27.614,0-50-22.386-50-50V100c0-27.614,22.386-50,50-50h312

	C439.56,50,461.945,72.386,461.945,100z M403.721,256c0-81.062-65.714-146.775-146.775-146.775S110.171,174.938,110.171,256

	c0,81.059,65.713,146.775,146.774,146.775S403.721,337.059,403.721,256z M281.6,227.72c3.299,6.795,6.394,13.658,9.378,20.55

	c26.412-4.55,55.379-4.273,86.871,0.893c-1.524-27.111-11.887-51.869-28.393-71.364C332.545,198.875,309.842,215.492,281.6,227.72z

	 M300.763,272.424c10.27,27.447,18.122,55.586,23.481,84.359c27.53-18.447,46.989-47.882,52.337-81.957

	C348.956,270.028,323.7,269.188,300.763,272.424z"/>

</svg>

